<svg xmlns="http://www.w3.org/2000/svg" xmlns:xlink="http://www.w3.org/1999/xlink" viewBox="0 0 1954.06 591.15"><defs><style>.cls-1{fill:url(#linear-gradient);}.cls-2{clip-path:url(#clip-path);}.cls-3{fill:url(#linear-gradient-4);}.cls-4{fill:url(#linear-gradient-5);}.cls-5{fill:url(#linear-gradient-6);}.cls-6{fill:url(#linear-gradient-7);}.cls-7{fill:url(#linear-gradient-8);}.cls-8{fill:url(#linear-gradient-9);}.cls-9{fill:url(#linear-gradient-10);}.cls-10{fill:url(#linear-gradient-11);}.cls-11{fill:url(#linear-gradient-12);}.cls-12{fill:url(#linear-gradient-13);}.cls-13{fill:url(#linear-gradient-14);}.cls-14{fill:url(#linear-gradient-15);}.cls-15{fill:url(#linear-gradient-16);}.cls-16{fill:url(#linear-gradient-17);}.cls-17{fill:url(#linear-gradient-18);}.cls-18{fill:url(#linear-gradient-19);}.cls-19{fill:url(#linear-gradient-20);}.cls-20{fill:url(#linear-gradient-21);}.cls-21{fill:url(#linear-gradient-22);}.cls-22{fill:url(#linear-gradient-23);}.cls-23{fill:url(#linear-gradient-24);}.cls-24{fill:url(#linear-gradient-25);}.cls-25{fill:url(#linear-gradient-26);}.cls-26{fill:url(#linear-gradient-27);}.cls-27{fill:url(#linear-gradient-28);}.cls-28{fill:url(#linear-gradient-29);}.cls-29{fill:url(#linear-gradient-30);}.cls-30{fill:url(#linear-gradient-31);}.cls-31{fill:url(#linear-gradient-32);}.cls-32{fill:url(#linear-gradient-33);}.cls-33{fill:url(#linear-gradient-34);}.cls-34{fill:url(#linear-gradient-35);}.cls-35{fill:url(#linear-gradient-36);}.cls-36{fill:url(#linear-gradient-37);}.cls-37{fill:url(#linear-gradient-38);}</style><linearGradient id="linear-gradient" x1="96.46" y1="497.61" x2="505" y2="83.08" gradientUnits="userSpaceOnUse"><stop offset="0" stop-color="#015c7b"/><stop offset="1" stop-color="#013c4f"/></linearGradient><clipPath id="clip-path"><path class="cls-1" d="M295.58,22.61c-150.76,0-273,122.21-273,273s122.21,273,273,273,273-122.21,273-273S446.33,22.61,295.58,22.61Z"/></clipPath><linearGradient id="linear-gradient-4" x1="60.42" y1="538.24" x2="528.82" y2="54.88" gradientUnits="userSpaceOnUse"><stop offset="0" stop-color="#008da8"/><stop offset="1" stop-color="#006f8d"/></linearGradient><linearGradient id="linear-gradient-5" x1="36.87" y1="342.37" x2="318.21" y2="171.77" gradientUnits="userSpaceOnUse"><stop offset="0" stop-color="#defffd"/><stop offset="0.22" stop-color="#dafffd"/><stop offset="0.42" stop-color="#cffffd"/><stop offset="0.62" stop-color="#bcfffd"/><stop offset="0.82" stop-color="#a1fffd"/><stop offset="1" stop-color="#82fffd"/></linearGradient><linearGradient id="linear-gradient-6" x1="61.61" y1="383.17" x2="342.95" y2="212.57" xlink:href="#linear-gradient-5"/><linearGradient id="linear-gradient-7" x1="37.59" y1="343.56" x2="318.93" y2="172.96" xlink:href="#linear-gradient-5"/><linearGradient id="linear-gradient-8" x1="40.86" y1="348.94" x2="322.19" y2="178.34" xlink:href="#linear-gradient-5"/><linearGradient id="linear-gradient-9" x1="54.3" y1="371.11" x2="335.64" y2="200.51" xlink:href="#linear-gradient-5"/><linearGradient id="linear-gradient-10" x1="54.86" y1="372.04" x2="336.2" y2="201.44" xlink:href="#linear-gradient-5"/><linearGradient id="linear-gradient-11" x1="65.76" y1="390" x2="347.1" y2="219.41" xlink:href="#linear-gradient-5"/><linearGradient id="linear-gradient-12" x1="71.83" y1="400.02" x2="353.17" y2="229.42" xlink:href="#linear-gradient-5"/><linearGradient id="linear-gradient-13" x1="89.53" y1="429.21" x2="370.87" y2="258.62" xlink:href="#linear-gradient-5"/><linearGradient id="linear-gradient-14" x1="110.29" y1="463.44" x2="391.63" y2="292.85" xlink:href="#linear-gradient-5"/><linearGradient id="linear-gradient-15" x1="113.44" y1="468.64" x2="394.78" y2="298.05" xlink:href="#linear-gradient-5"/><linearGradient id="linear-gradient-16" x1="128.23" y1="493.03" x2="409.57" y2="322.43" xlink:href="#linear-gradient-5"/><linearGradient id="linear-gradient-17" x1="138.19" y1="509.46" x2="419.53" y2="338.86" xlink:href="#linear-gradient-5"/><linearGradient id="linear-gradient-18" x1="158.49" y1="542.92" x2="439.82" y2="372.33" xlink:href="#linear-gradient-5"/><linearGradient id="linear-gradient-19" x1="161.92" y1="548.58" x2="443.25" y2="377.98" xlink:href="#linear-gradient-5"/><linearGradient id="linear-gradient-20" x1="273" y1="332.52" x2="328" y2="223.46" gradientUnits="userSpaceOnUse"><stop offset="0" stop-color="#b71d50"/><stop offset="0.48" stop-color="#8e163c"/><stop offset="1" stop-color="#640e27"/></linearGradient><linearGradient id="linear-gradient-21" x1="925.46" y1="147.52" x2="2541.98" y2="-341.77" xlink:href="#linear-gradient-4"/><linearGradient id="linear-gradient-22" x1="939.08" y1="192.5" x2="2555.59" y2="-296.79" xlink:href="#linear-gradient-4"/><linearGradient id="linear-gradient-23" x1="954.31" y1="242.83" x2="2570.83" y2="-246.46" xlink:href="#linear-gradient-4"/><linearGradient id="linear-gradient-24" x1="963.8" y1="274.17" x2="2580.31" y2="-215.12" xlink:href="#linear-gradient-4"/><linearGradient id="linear-gradient-25" x1="972.99" y1="304.55" x2="2589.51" y2="-184.74" xlink:href="#linear-gradient-4"/><linearGradient id="linear-gradient-26" x1="982.2" y1="334.97" x2="2598.72" y2="-154.32" xlink:href="#linear-gradient-4"/><linearGradient id="linear-gradient-27" x1="993.2" y1="371.3" x2="2609.71" y2="-117.99" xlink:href="#linear-gradient-4"/><linearGradient id="linear-gradient-28" x1="957.67" y1="253.92" x2="2574.18" y2="-235.37" xlink:href="#linear-gradient-4"/><linearGradient id="linear-gradient-29" x1="1006.41" y1="414.94" x2="2622.92" y2="-74.35" xlink:href="#linear-gradient-4"/><linearGradient id="linear-gradient-30" x1="1018.28" y1="454.17" x2="2634.8" y2="-35.12" xlink:href="#linear-gradient-4"/><linearGradient id="linear-gradient-31" x1="983.83" y1="340.35" x2="2600.34" y2="-148.94" xlink:href="#linear-gradient-4"/><linearGradient id="linear-gradient-32" x1="997.57" y1="385.74" x2="2614.08" y2="-103.55" xlink:href="#linear-gradient-4"/><linearGradient id="linear-gradient-33" x1="1012.27" y1="434.31" x2="2628.78" y2="-54.98" xlink:href="#linear-gradient-4"/><linearGradient id="linear-gradient-34" x1="1020.62" y1="461.89" x2="2637.13" y2="-27.4" xlink:href="#linear-gradient-4"/><linearGradient id="linear-gradient-35" x1="1030.98" y1="496.12" x2="2647.49" y2="6.83" xlink:href="#linear-gradient-4"/><linearGradient id="linear-gradient-36" x1="1048.69" y1="554.63" x2="2665.2" y2="65.34" xlink:href="#linear-gradient-4"/><linearGradient id="linear-gradient-37" x1="1061.12" y1="595.71" x2="2677.64" y2="106.42" xlink:href="#linear-gradient-4"/><linearGradient id="linear-gradient-38" x1="1075.57" y1="643.43" x2="2692.08" y2="154.14" xlink:href="#linear-gradient-4"/></defs><title>Asset 1</title><g id="Layer_2" data-name="Layer 2"><g id="Layer_1-2" data-name="Layer 1"><path class="cls-1" d="M295.58,22.61c-150.76,0-273,122.21-273,273s122.21,273,273,273,273-122.21,273-273S446.33,22.61,295.58,22.61Z"/><g class="cls-2"><path class="cls-1" d="M295.58,22.61c-150.76,0-273,122.21-273,273s122.21,273,273,273,273-122.21,273-273S446.33,22.61,295.58,22.61Z"/></g><path class="cls-3" d="M295.58,591.15A295.65,295.65,0,0,1,180.52,23.23,295.65,295.65,0,0,1,410.63,567.92,293.64,293.64,0,0,1,295.58,591.15Zm0-576.12C140.88,15,15,140.88,15,295.58S140.88,576.12,295.58,576.12,576.12,450.27,576.12,295.58,450.27,15,295.58,15Z"/><path class="cls-4" d="M72.72,354.83a9.7,9.7,0,0,1-19.4,0V298.19a9.7,9.7,0,0,1,19.4,0Z"/><path class="cls-5" d="M324.48,207.68a9.7,9.7,0,1,1,19.4,0V228.1a9.7,9.7,0,1,1-19.4,0Z"/><path class="cls-6" d="M286.07,181.82a9.7,9.7,0,1,1,19.39,0V192.2a9.7,9.7,0,0,1-19.39,0Z"/><path class="cls-7" d="M247.28,207.68a9.7,9.7,0,1,1,19.39,0V228.1a9.7,9.7,0,1,1-19.39,0Z"/><path class="cls-8" d="M111.51,373.47a9.7,9.7,0,0,1-19.4,0V311.12a9.7,9.7,0,0,1,19.4,0Z"/><path class="cls-9" d="M150.3,354.83a9.7,9.7,0,0,1-19.4,0V285.26a9.7,9.7,0,0,1,19.4,0Z"/><path class="cls-10" d="M189.09,382.79a9.7,9.7,0,1,1-19.39,0V259.4a9.7,9.7,0,1,1,19.39,0Z"/><path class="cls-11" d="M227.88,354.83a9.7,9.7,0,1,1-19.39,0V267.71a9.7,9.7,0,1,1,19.39,0Z"/><path class="cls-12" d="M266.67,364.15a9.7,9.7,0,1,1-19.39,0V291.21a9.7,9.7,0,1,1,19.39,0Z"/><path class="cls-13" d="M343.88,364.15a9.7,9.7,0,0,1-19.4,0V291.21a9.7,9.7,0,0,1,19.4,0Z"/><path class="cls-14" d="M382.67,354.83a9.7,9.7,0,1,1-19.4,0V267.71a9.7,9.7,0,1,1,19.4,0Z"/><path class="cls-15" d="M421.46,382.79a9.7,9.7,0,0,1-19.4,0V259.4a9.7,9.7,0,0,1,19.4,0Z"/><path class="cls-16" d="M460.25,354.83a9.7,9.7,0,0,1-19.4,0V285.26a9.7,9.7,0,1,1,19.4,0Z"/><path class="cls-17" d="M499,373.47a9.7,9.7,0,0,1-19.4,0V311.12a9.7,9.7,0,0,1,19.4,0Z"/><path class="cls-18" d="M528.13,364.53a9.7,9.7,0,0,1-9.7-9.7V298.19a9.7,9.7,0,0,1,19.4,0v56.64A9.7,9.7,0,0,1,528.13,364.53Z"/><path class="cls-19" d="M334.55,272.11H308.31v120a12.55,12.55,0,1,1-25.09,0v-120H257A12.55,12.55,0,0,1,257,247h26.25V221.28a12.55,12.55,0,1,1,25.09,0V247h26.24a12.55,12.55,0,1,1,0,25.09Z"/><path class="cls-20" d="M733.65,263.65a77.94,77.94,0,0,1-30.48-29.23q-11-18.64-11-42.08t11.15-42.08A78.84,78.84,0,0,1,733.87,121q19.46-10.57,43.56-10.58a90.85,90.85,0,0,1,35.71,6.83,72.77,72.77,0,0,1,27.3,19.79l-19.11,18q-17.28-18.65-42.53-18.65a59.65,59.65,0,0,0-29.35,7.17,51.64,51.64,0,0,0-20.24,19.9,61,61,0,0,0,0,57.78,51.64,51.64,0,0,0,20.24,19.9,59.75,59.75,0,0,0,29.35,7.16q25.25,0,42.53-18.88l19.11,18.2A72.71,72.71,0,0,1,813,267.4a91.7,91.7,0,0,1-35.83,6.82Q753.1,274.22,733.65,263.65Z"/><path class="cls-21" d="M1010.35,112.73V272H980.78V203.71H898.44V272H868.87V112.73h29.57v65.73h82.34V112.73Z"/><path class="cls-22" d="M1157.29,272l-32.53-46.63a61,61,0,0,1-6.14.23h-35.94V272h-29.57V112.73h65.51q20.69,0,36.05,6.82t23.54,19.56q8.19,12.75,8.19,30.25,0,18-8.76,30.94t-25.13,19.33L1189.13,272Zm-10.69-126q-10-8.19-29.35-8.19h-34.57v63.46h34.57q19.34,0,29.35-8.3t10-23.55Q1156.6,154.14,1146.6,145.94Z"/><path class="cls-23" d="M1219.38,112.73H1249V272h-29.57Z"/><path class="cls-24" d="M1305.7,269q-17.19-5.22-27.18-13.87l10.23-23a80.52,80.52,0,0,0,24,12.63,87.21,87.21,0,0,0,28.54,4.89q17.74,0,26.5-5.69t8.76-15a14.54,14.54,0,0,0-4.89-11.26,34.28,34.28,0,0,0-12.4-6.94q-7.5-2.49-20.47-5.68a238.1,238.1,0,0,1-29.45-8.65A48.44,48.44,0,0,1,1290,182.9q-8.07-9.21-8.07-24.91a42.52,42.52,0,0,1,7.16-24q7.17-10.81,21.61-17.18t35.37-6.37a114.55,114.55,0,0,1,28.66,3.64,79.39,79.39,0,0,1,24.34,10.47l-9.33,23a92,92,0,0,0-21.83-9.33,81.86,81.86,0,0,0-22.07-3.18q-17.52,0-26,5.91t-8.53,15.7a14.18,14.18,0,0,0,4.89,11.14,35.35,35.35,0,0,0,12.4,6.83q7.5,2.51,20.47,5.68a216.67,216.67,0,0,1,29.11,8.53,49.86,49.86,0,0,1,19.45,13.54q8.07,9.09,8.07,24.56a41.88,41.88,0,0,1-7.16,23.88q-7.17,10.7-21.72,17.06t-35.49,6.37A121.32,121.32,0,0,1,1305.7,269Z"/><path class="cls-25" d="M1465,137.75h-52.77v-25h135.11v25H1494.6V272H1465Z"/><path class="cls-26" d="M1569.66,112.73h29.57V272h-29.57Z"/><path class="cls-27" d="M1465,63.69h29.57v64.37H1465Z"/><path class="cls-28" d="M1745.48,235.1h-79.61L1650.18,272H1619.7l71.65-159.22h29.11L1792.34,272h-30.93Zm-9.78-23.2-30-69.6-29.8,69.6Z"/><path class="cls-29" d="M1954.06,112.73V272h-24.34l-87.8-107.82V272h-29.34V112.73h24.34l87.8,107.81V112.73Z"/><path class="cls-30" d="M829.29,478.57l-.21-99L780,461.5H767.65l-49.06-80.63v97.7H692.13V329.25H715l59.3,99,58.23-99h22.83l.21,149.32Z"/><path class="cls-31" d="M911.84,463.31q-17.28-17.37-17.28-49.8V329.25h27.73v83.19q0,43.95,38,43.94,37.75,0,37.76-43.94V329.25h27.3v84.26q0,32.42-17.17,49.8t-48.1,17.39Q929.12,480.7,911.84,463.31Z"/><path class="cls-32" d="M1077.05,475.79q-16.11-4.91-25.49-13l9.6-21.54a75.68,75.68,0,0,0,22.5,11.84,81.75,81.75,0,0,0,26.77,4.58q16.63,0,24.85-5.33t8.21-14.08a13.64,13.64,0,0,0-4.58-10.56,32.15,32.15,0,0,0-11.63-6.5q-7-2.35-19.2-5.34a224.21,224.21,0,0,1-27.62-8.1,45.53,45.53,0,0,1-18.13-12.69q-7.57-8.64-7.57-23.36a39.87,39.87,0,0,1,6.72-22.51q6.72-10.12,20.26-16.1t33.17-6a107.43,107.43,0,0,1,26.88,3.41,74.12,74.12,0,0,1,22.82,9.81l-8.74,21.55a86.41,86.41,0,0,0-20.48-8.75,76.66,76.66,0,0,0-20.69-3q-16.42,0-24.43,5.55t-8,14.72a13.3,13.3,0,0,0,4.59,10.45,33.08,33.08,0,0,0,11.63,6.4q7,2.36,19.19,5.33a202.69,202.69,0,0,1,27.31,8,46.83,46.83,0,0,1,18.24,12.69q7.56,8.54,7.57,23a39.33,39.33,0,0,1-6.72,22.4q-6.72,10-20.37,16t-33.28,6A113.88,113.88,0,0,1,1077.05,475.79Z"/><path class="cls-33" d="M1198.31,329.25h27.74V478.57h-27.74Z"/><path class="cls-34" d="M1294.62,470.78A73,73,0,0,1,1266,443.37q-10.35-17.49-10.35-39.46t10.45-39.46A74,74,0,0,1,1294.83,337q18.24-9.91,40.85-9.91a85.15,85.15,0,0,1,33.49,6.4,68.28,68.28,0,0,1,25.6,18.55l-17.92,16.85q-16.21-17.48-39.89-17.49a55.88,55.88,0,0,0-27.51,6.72,48.36,48.36,0,0,0-19,18.67,57.21,57.21,0,0,0,0,54.18,48.4,48.4,0,0,0,19,18.66,55.88,55.88,0,0,0,27.51,6.72q23.68,0,39.89-17.7l17.92,17.06a68.19,68.19,0,0,1-25.7,18.56,85.94,85.94,0,0,1-33.6,6.4Q1312.85,480.7,1294.62,470.78Z"/><path class="cls-35" d="M1613,329.25V478.57h-27.73v-64H1508v64H1480.3V329.25H1508V390.9h77.22V329.25Z"/><path class="cls-36" d="M1669.08,463.31q-17.28-17.37-17.28-49.8V329.25h27.73v83.19q0,43.95,38,43.94,37.76,0,37.76-43.94V329.25h27.3v84.26q0,32.42-17.17,49.8t-48.1,17.39Q1686.36,480.7,1669.08,463.31Z"/><path class="cls-37" d="M1946.81,414.47q7.25,9.5,7.25,23.57,0,19.41-14.93,30t-43.52,10.56h-74.23V329.25h70q26.45,0,40.74,10.34t14.29,28.48a37.34,37.34,0,0,1-5.12,19.63,35,35,0,0,1-14.08,13.22A39.41,39.41,0,0,1,1946.81,414.47ZM1849.11,351v41.17h39.25q14.51,0,22.29-5.23t7.79-15.25q0-10.24-7.79-15.47T1888.36,351Zm77,84.25q0-21.54-32.21-21.54h-44.8v43.09h44.8Q1926.12,456.81,1926.12,435.26Z"/></g></g></svg>